<mxfile host="app.diagrams.net" modified="2023-09-19T18:34:37.870Z" agent="Mozilla/5.0 (Windows NT 10.0; Win64; x64) AppleWebKit/537.36 (KHTML, like Gecko) Chrome/116.0.0.0 Safari/537.36" etag="JKPrgexSPp_oNVVCqG95" version="21.7.5" type="device">
  <diagram name="1 oldal" id="stacnD9i24DPyRR-doqv">
    <mxGraphModel dx="2901" dy="790" grid="1" gridSize="10" guides="1" tooltips="1" connect="1" arrows="1" fold="1" page="1" pageScale="1" pageWidth="827" pageHeight="1169" math="0" shadow="0">
      <root>
        <mxCell id="0" />
        <mxCell id="1" parent="0" />
        <mxCell id="a_T9DH_fcQy3RvN6pvx2-9" value="&lt;i&gt;LObject&lt;/i&gt;" style="swimlane;fontStyle=1;align=center;verticalAlign=top;childLayout=stackLayout;horizontal=1;startSize=26;horizontalStack=0;resizeParent=1;resizeParentMax=0;resizeLast=0;collapsible=1;marginBottom=0;whiteSpace=wrap;html=1;" vertex="1" parent="1">
          <mxGeometry x="190" y="210" width="160" height="90" as="geometry" />
        </mxCell>
        <mxCell id="a_T9DH_fcQy3RvN6pvx2-10" value="+ X, Y" style="text;strokeColor=none;fillColor=none;align=left;verticalAlign=top;spacingLeft=4;spacingRight=4;overflow=hidden;rotatable=0;points=[[0,0.5],[1,0.5]];portConstraint=eastwest;whiteSpace=wrap;html=1;" vertex="1" parent="a_T9DH_fcQy3RvN6pvx2-9">
          <mxGeometry y="26" width="160" height="26" as="geometry" />
        </mxCell>
        <mxCell id="a_T9DH_fcQy3RvN6pvx2-11" value="" style="line;strokeWidth=1;fillColor=none;align=left;verticalAlign=middle;spacingTop=-1;spacingLeft=3;spacingRight=3;rotatable=0;labelPosition=right;points=[];portConstraint=eastwest;strokeColor=inherit;" vertex="1" parent="a_T9DH_fcQy3RvN6pvx2-9">
          <mxGeometry y="52" width="160" height="8" as="geometry" />
        </mxCell>
        <mxCell id="a_T9DH_fcQy3RvN6pvx2-12" value="+Accept(LVisitor visitor)" style="text;strokeColor=none;fillColor=none;align=left;verticalAlign=top;spacingLeft=4;spacingRight=4;overflow=hidden;rotatable=0;points=[[0,0.5],[1,0.5]];portConstraint=eastwest;whiteSpace=wrap;html=1;" vertex="1" parent="a_T9DH_fcQy3RvN6pvx2-9">
          <mxGeometry y="60" width="160" height="30" as="geometry" />
        </mxCell>
        <mxCell id="a_T9DH_fcQy3RvN6pvx2-14" value="&lt;i&gt;LTraversable&lt;/i&gt;" style="swimlane;fontStyle=1;align=center;verticalAlign=top;childLayout=stackLayout;horizontal=1;startSize=26;horizontalStack=0;resizeParent=1;resizeParentMax=0;resizeLast=0;collapsible=1;marginBottom=0;whiteSpace=wrap;html=1;" vertex="1" parent="1">
          <mxGeometry x="190" y="370" width="160" height="90" as="geometry" />
        </mxCell>
        <mxCell id="a_T9DH_fcQy3RvN6pvx2-15" value="+ W, H" style="text;strokeColor=none;fillColor=none;align=left;verticalAlign=top;spacingLeft=4;spacingRight=4;overflow=hidden;rotatable=0;points=[[0,0.5],[1,0.5]];portConstraint=eastwest;whiteSpace=wrap;html=1;" vertex="1" parent="a_T9DH_fcQy3RvN6pvx2-14">
          <mxGeometry y="26" width="160" height="26" as="geometry" />
        </mxCell>
        <mxCell id="a_T9DH_fcQy3RvN6pvx2-16" value="" style="line;strokeWidth=1;fillColor=none;align=left;verticalAlign=middle;spacingTop=-1;spacingLeft=3;spacingRight=3;rotatable=0;labelPosition=right;points=[];portConstraint=eastwest;strokeColor=inherit;" vertex="1" parent="a_T9DH_fcQy3RvN6pvx2-14">
          <mxGeometry y="52" width="160" height="8" as="geometry" />
        </mxCell>
        <mxCell id="a_T9DH_fcQy3RvN6pvx2-17" value="+ IsIn(x, y) : bool" style="text;strokeColor=none;fillColor=none;align=left;verticalAlign=top;spacingLeft=4;spacingRight=4;overflow=hidden;rotatable=0;points=[[0,0.5],[1,0.5]];portConstraint=eastwest;whiteSpace=wrap;html=1;" vertex="1" parent="a_T9DH_fcQy3RvN6pvx2-14">
          <mxGeometry y="60" width="160" height="30" as="geometry" />
        </mxCell>
        <mxCell id="a_T9DH_fcQy3RvN6pvx2-18" value="Door" style="swimlane;fontStyle=1;align=center;verticalAlign=top;childLayout=stackLayout;horizontal=1;startSize=26;horizontalStack=0;resizeParent=1;resizeParentMax=0;resizeLast=0;collapsible=1;marginBottom=0;whiteSpace=wrap;html=1;" vertex="1" parent="1">
          <mxGeometry x="-10" y="370" width="160" height="68" as="geometry" />
        </mxCell>
        <mxCell id="a_T9DH_fcQy3RvN6pvx2-19" value="+ Horizontal: bool&lt;br&gt;" style="text;strokeColor=none;fillColor=none;align=left;verticalAlign=top;spacingLeft=4;spacingRight=4;overflow=hidden;rotatable=0;points=[[0,0.5],[1,0.5]];portConstraint=eastwest;whiteSpace=wrap;html=1;" vertex="1" parent="a_T9DH_fcQy3RvN6pvx2-18">
          <mxGeometry y="26" width="160" height="34" as="geometry" />
        </mxCell>
        <mxCell id="a_T9DH_fcQy3RvN6pvx2-20" value="" style="line;strokeWidth=1;fillColor=none;align=left;verticalAlign=middle;spacingTop=-1;spacingLeft=3;spacingRight=3;rotatable=0;labelPosition=right;points=[];portConstraint=eastwest;strokeColor=inherit;" vertex="1" parent="a_T9DH_fcQy3RvN6pvx2-18">
          <mxGeometry y="60" width="160" height="8" as="geometry" />
        </mxCell>
        <mxCell id="a_T9DH_fcQy3RvN6pvx2-22" value="Room" style="swimlane;fontStyle=1;align=center;verticalAlign=top;childLayout=stackLayout;horizontal=1;startSize=26;horizontalStack=0;resizeParent=1;resizeParentMax=0;resizeLast=0;collapsible=1;marginBottom=0;whiteSpace=wrap;html=1;" vertex="1" parent="1">
          <mxGeometry x="190" y="540" width="160" height="60" as="geometry" />
        </mxCell>
        <mxCell id="a_T9DH_fcQy3RvN6pvx2-23" value="+ Type" style="text;strokeColor=none;fillColor=none;align=left;verticalAlign=top;spacingLeft=4;spacingRight=4;overflow=hidden;rotatable=0;points=[[0,0.5],[1,0.5]];portConstraint=eastwest;whiteSpace=wrap;html=1;" vertex="1" parent="a_T9DH_fcQy3RvN6pvx2-22">
          <mxGeometry y="26" width="160" height="26" as="geometry" />
        </mxCell>
        <mxCell id="a_T9DH_fcQy3RvN6pvx2-24" value="" style="line;strokeWidth=1;fillColor=none;align=left;verticalAlign=middle;spacingTop=-1;spacingLeft=3;spacingRight=3;rotatable=0;labelPosition=right;points=[];portConstraint=eastwest;strokeColor=inherit;" vertex="1" parent="a_T9DH_fcQy3RvN6pvx2-22">
          <mxGeometry y="52" width="160" height="8" as="geometry" />
        </mxCell>
        <mxCell id="a_T9DH_fcQy3RvN6pvx2-28" value="" style="endArrow=block;endSize=16;endFill=0;html=1;rounded=0;exitX=0.5;exitY=0;exitDx=0;exitDy=0;entryX=0.494;entryY=1.067;entryDx=0;entryDy=0;entryPerimeter=0;" edge="1" parent="1" source="a_T9DH_fcQy3RvN6pvx2-14" target="a_T9DH_fcQy3RvN6pvx2-12">
          <mxGeometry width="160" relative="1" as="geometry">
            <mxPoint x="480" y="480" as="sourcePoint" />
            <mxPoint x="650" y="480" as="targetPoint" />
          </mxGeometry>
        </mxCell>
        <mxCell id="a_T9DH_fcQy3RvN6pvx2-29" value="" style="endArrow=block;endSize=16;endFill=0;html=1;rounded=0;exitX=0.5;exitY=0;exitDx=0;exitDy=0;entryX=0.5;entryY=1.033;entryDx=0;entryDy=0;entryPerimeter=0;" edge="1" parent="1" source="a_T9DH_fcQy3RvN6pvx2-22" target="a_T9DH_fcQy3RvN6pvx2-17">
          <mxGeometry width="160" relative="1" as="geometry">
            <mxPoint x="490" y="490" as="sourcePoint" />
            <mxPoint x="660" y="490" as="targetPoint" />
          </mxGeometry>
        </mxCell>
        <mxCell id="a_T9DH_fcQy3RvN6pvx2-30" value="" style="endArrow=block;endSize=16;endFill=0;html=1;rounded=0;exitX=0.5;exitY=0;exitDx=0;exitDy=0;entryX=0;entryY=0.5;entryDx=0;entryDy=0;" edge="1" parent="1" source="a_T9DH_fcQy3RvN6pvx2-18" target="a_T9DH_fcQy3RvN6pvx2-10">
          <mxGeometry width="160" relative="1" as="geometry">
            <mxPoint x="500" y="500" as="sourcePoint" />
            <mxPoint x="670" y="500" as="targetPoint" />
            <Array as="points">
              <mxPoint x="70" y="249" />
            </Array>
          </mxGeometry>
        </mxCell>
        <mxCell id="a_T9DH_fcQy3RvN6pvx2-33" value="Labyrinth" style="swimlane;fontStyle=1;align=center;verticalAlign=top;childLayout=stackLayout;horizontal=1;startSize=26;horizontalStack=0;resizeParent=1;resizeParentMax=0;resizeLast=0;collapsible=1;marginBottom=0;whiteSpace=wrap;html=1;" vertex="1" parent="1">
          <mxGeometry x="-10" y="530" width="160" height="170" as="geometry" />
        </mxCell>
        <mxCell id="a_T9DH_fcQy3RvN6pvx2-34" value="+ List&amp;lt;LTraversable&amp;gt; rooms&lt;br&gt;+ List&amp;lt;Door&amp;gt; doors&lt;br&gt;+ connectionMatrix&lt;br&gt;+ roomNameMap" style="text;strokeColor=none;fillColor=none;align=left;verticalAlign=top;spacingLeft=4;spacingRight=4;overflow=hidden;rotatable=0;points=[[0,0.5],[1,0.5]];portConstraint=eastwest;whiteSpace=wrap;html=1;" vertex="1" parent="a_T9DH_fcQy3RvN6pvx2-33">
          <mxGeometry y="26" width="160" height="64" as="geometry" />
        </mxCell>
        <mxCell id="a_T9DH_fcQy3RvN6pvx2-35" value="" style="line;strokeWidth=1;fillColor=none;align=left;verticalAlign=middle;spacingTop=-1;spacingLeft=3;spacingRight=3;rotatable=0;labelPosition=right;points=[];portConstraint=eastwest;strokeColor=inherit;" vertex="1" parent="a_T9DH_fcQy3RvN6pvx2-33">
          <mxGeometry y="90" width="160" height="8" as="geometry" />
        </mxCell>
        <mxCell id="a_T9DH_fcQy3RvN6pvx2-36" value="+ GetSize&lt;br&gt;+ GetTopLeft&lt;br&gt;+ GetBottomRight" style="text;strokeColor=none;fillColor=none;align=left;verticalAlign=top;spacingLeft=4;spacingRight=4;overflow=hidden;rotatable=0;points=[[0,0.5],[1,0.5]];portConstraint=eastwest;whiteSpace=wrap;html=1;" vertex="1" parent="a_T9DH_fcQy3RvN6pvx2-33">
          <mxGeometry y="98" width="160" height="72" as="geometry" />
        </mxCell>
        <mxCell id="a_T9DH_fcQy3RvN6pvx2-39" value="" style="endArrow=diamondThin;endFill=0;endSize=24;html=1;rounded=0;entryX=0.5;entryY=0;entryDx=0;entryDy=0;exitX=0.5;exitY=1;exitDx=0;exitDy=0;" edge="1" parent="1" source="a_T9DH_fcQy3RvN6pvx2-18" target="a_T9DH_fcQy3RvN6pvx2-33">
          <mxGeometry width="160" relative="1" as="geometry">
            <mxPoint x="320" y="710" as="sourcePoint" />
            <mxPoint x="500" y="680" as="targetPoint" />
          </mxGeometry>
        </mxCell>
        <mxCell id="a_T9DH_fcQy3RvN6pvx2-40" value="&lt;p style=&quot;margin:0px;margin-top:4px;text-align:center;&quot;&gt;&lt;i&gt;&amp;lt;&amp;lt;Interface&amp;gt;&amp;gt;&lt;/i&gt;&lt;br&gt;&lt;b&gt;LVisitor&lt;/b&gt;&lt;/p&gt;&lt;hr size=&quot;1&quot;&gt;&lt;p style=&quot;margin:0px;margin-left:4px;&quot;&gt;&lt;span style=&quot;background-color: initial;&quot;&gt;+VisitRoom(Room room)&lt;/span&gt;&lt;/p&gt;&lt;p style=&quot;margin:0px;margin-left:4px;&quot;&gt;&lt;span style=&quot;background-color: initial;&quot;&gt;+VisitColoredRoom(ColoredRoom room)&lt;/span&gt;&lt;/p&gt;&lt;p style=&quot;margin:0px;margin-left:4px;&quot;&gt;&lt;span style=&quot;background-color: initial;&quot;&gt;+VisitDoor(Door door)&lt;/span&gt;&lt;/p&gt;" style="verticalAlign=top;align=left;overflow=fill;fontSize=12;fontFamily=Helvetica;html=1;whiteSpace=wrap;" vertex="1" parent="1">
          <mxGeometry x="460" y="410" width="260" height="140" as="geometry" />
        </mxCell>
        <mxCell id="a_T9DH_fcQy3RvN6pvx2-42" value="" style="endArrow=block;endSize=16;endFill=0;html=1;rounded=0;exitX=0.5;exitY=0;exitDx=0;exitDy=0;entryX=0.5;entryY=1;entryDx=0;entryDy=0;" edge="1" parent="1" source="a_T9DH_fcQy3RvN6pvx2-50" target="a_T9DH_fcQy3RvN6pvx2-22">
          <mxGeometry width="160" relative="1" as="geometry">
            <mxPoint x="510" y="510" as="sourcePoint" />
            <mxPoint x="680" y="510" as="targetPoint" />
          </mxGeometry>
        </mxCell>
        <mxCell id="a_T9DH_fcQy3RvN6pvx2-44" value="" style="endArrow=diamondThin;endFill=0;endSize=24;html=1;rounded=0;entryX=0;entryY=0.25;entryDx=0;entryDy=0;exitX=-0.025;exitY=0.828;exitDx=0;exitDy=0;exitPerimeter=0;" edge="1" parent="1" source="a_T9DH_fcQy3RvN6pvx2-34" target="a_T9DH_fcQy3RvN6pvx2-83">
          <mxGeometry width="160" relative="1" as="geometry">
            <mxPoint x="570" y="615" as="sourcePoint" />
            <mxPoint x="750" y="585" as="targetPoint" />
            <Array as="points">
              <mxPoint x="-250" y="610" />
              <mxPoint x="-250" y="25" />
            </Array>
          </mxGeometry>
        </mxCell>
        <mxCell id="a_T9DH_fcQy3RvN6pvx2-50" value="ColoredRoom" style="swimlane;fontStyle=1;align=center;verticalAlign=top;childLayout=stackLayout;horizontal=1;startSize=26;horizontalStack=0;resizeParent=1;resizeParentMax=0;resizeLast=0;collapsible=1;marginBottom=0;whiteSpace=wrap;html=1;" vertex="1" parent="1">
          <mxGeometry x="190" y="650" width="160" height="60" as="geometry" />
        </mxCell>
        <mxCell id="a_T9DH_fcQy3RvN6pvx2-51" value="+ Color" style="text;strokeColor=none;fillColor=none;align=left;verticalAlign=top;spacingLeft=4;spacingRight=4;overflow=hidden;rotatable=0;points=[[0,0.5],[1,0.5]];portConstraint=eastwest;whiteSpace=wrap;html=1;" vertex="1" parent="a_T9DH_fcQy3RvN6pvx2-50">
          <mxGeometry y="26" width="160" height="26" as="geometry" />
        </mxCell>
        <mxCell id="a_T9DH_fcQy3RvN6pvx2-52" value="" style="line;strokeWidth=1;fillColor=none;align=left;verticalAlign=middle;spacingTop=-1;spacingLeft=3;spacingRight=3;rotatable=0;labelPosition=right;points=[];portConstraint=eastwest;strokeColor=inherit;" vertex="1" parent="a_T9DH_fcQy3RvN6pvx2-50">
          <mxGeometry y="52" width="160" height="8" as="geometry" />
        </mxCell>
        <mxCell id="a_T9DH_fcQy3RvN6pvx2-54" value="&lt;p style=&quot;margin:0px;margin-top:4px;text-align:center;&quot;&gt;&lt;i&gt;&amp;lt;&amp;lt;Interface&amp;gt;&amp;gt;&lt;/i&gt;&lt;br&gt;&lt;b&gt;LabyrinthDrawer&lt;/b&gt;&lt;/p&gt;&lt;hr size=&quot;1&quot;&gt;&lt;p style=&quot;margin:0px;margin-left:4px;&quot;&gt;&lt;span style=&quot;background-color: initial;&quot;&gt;+Draw(Labyrinth labyrinth)&lt;/span&gt;&lt;/p&gt;" style="verticalAlign=top;align=left;overflow=fill;fontSize=12;fontFamily=Helvetica;html=1;whiteSpace=wrap;" vertex="1" parent="1">
          <mxGeometry x="750" y="20" width="180" height="140" as="geometry" />
        </mxCell>
        <mxCell id="a_T9DH_fcQy3RvN6pvx2-55" value="&lt;p style=&quot;margin:0px;margin-top:4px;text-align:center;&quot;&gt;&lt;i&gt;&amp;lt;&amp;lt;Interface&amp;gt;&amp;gt;&lt;/i&gt;&lt;br&gt;&lt;b&gt;LIterator&lt;/b&gt;&lt;/p&gt;&lt;hr size=&quot;1&quot;&gt;&lt;p style=&quot;margin:0px;margin-left:4px;&quot;&gt;&lt;span style=&quot;background-color: initial;&quot;&gt;+ Begin()&lt;/span&gt;&lt;/p&gt;&lt;p style=&quot;margin:0px;margin-left:4px;&quot;&gt;&lt;span style=&quot;background-color: initial;&quot;&gt;+ Next() : bool&lt;/span&gt;&lt;/p&gt;&lt;p style=&quot;margin:0px;margin-left:4px;&quot;&gt;&lt;span style=&quot;background-color: initial;&quot;&gt;+ Get() : LObject&lt;/span&gt;&lt;/p&gt;" style="verticalAlign=top;align=left;overflow=fill;fontSize=12;fontFamily=Helvetica;html=1;whiteSpace=wrap;" vertex="1" parent="1">
          <mxGeometry x="190" y="20" width="170" height="140" as="geometry" />
        </mxCell>
        <mxCell id="a_T9DH_fcQy3RvN6pvx2-56" value="BitMapLDrawer" style="swimlane;fontStyle=1;align=center;verticalAlign=top;childLayout=stackLayout;horizontal=1;startSize=26;horizontalStack=0;resizeParent=1;resizeParentMax=0;resizeLast=0;collapsible=1;marginBottom=0;whiteSpace=wrap;html=1;" vertex="1" parent="1">
          <mxGeometry x="450" y="244" width="160" height="56" as="geometry" />
        </mxCell>
        <mxCell id="a_T9DH_fcQy3RvN6pvx2-57" value="- LIterator iterator" style="text;strokeColor=none;fillColor=none;align=left;verticalAlign=top;spacingLeft=4;spacingRight=4;overflow=hidden;rotatable=0;points=[[0,0.5],[1,0.5]];portConstraint=eastwest;whiteSpace=wrap;html=1;" vertex="1" parent="a_T9DH_fcQy3RvN6pvx2-56">
          <mxGeometry y="26" width="160" height="22" as="geometry" />
        </mxCell>
        <mxCell id="a_T9DH_fcQy3RvN6pvx2-58" value="" style="line;strokeWidth=1;fillColor=none;align=left;verticalAlign=middle;spacingTop=-1;spacingLeft=3;spacingRight=3;rotatable=0;labelPosition=right;points=[];portConstraint=eastwest;strokeColor=inherit;" vertex="1" parent="a_T9DH_fcQy3RvN6pvx2-56">
          <mxGeometry y="48" width="160" height="8" as="geometry" />
        </mxCell>
        <mxCell id="a_T9DH_fcQy3RvN6pvx2-60" value="CharacterLDrawer" style="swimlane;fontStyle=1;align=center;verticalAlign=top;childLayout=stackLayout;horizontal=1;startSize=26;horizontalStack=0;resizeParent=1;resizeParentMax=0;resizeLast=0;collapsible=1;marginBottom=0;whiteSpace=wrap;html=1;" vertex="1" parent="1">
          <mxGeometry x="650" y="244" width="160" height="56" as="geometry" />
        </mxCell>
        <mxCell id="a_T9DH_fcQy3RvN6pvx2-61" value="- LIterator iterator" style="text;strokeColor=none;fillColor=none;align=left;verticalAlign=top;spacingLeft=4;spacingRight=4;overflow=hidden;rotatable=0;points=[[0,0.5],[1,0.5]];portConstraint=eastwest;whiteSpace=wrap;html=1;" vertex="1" parent="a_T9DH_fcQy3RvN6pvx2-60">
          <mxGeometry y="26" width="160" height="22" as="geometry" />
        </mxCell>
        <mxCell id="a_T9DH_fcQy3RvN6pvx2-62" value="" style="line;strokeWidth=1;fillColor=none;align=left;verticalAlign=middle;spacingTop=-1;spacingLeft=3;spacingRight=3;rotatable=0;labelPosition=right;points=[];portConstraint=eastwest;strokeColor=inherit;" vertex="1" parent="a_T9DH_fcQy3RvN6pvx2-60">
          <mxGeometry y="48" width="160" height="8" as="geometry" />
        </mxCell>
        <mxCell id="a_T9DH_fcQy3RvN6pvx2-65" value="" style="endArrow=block;dashed=1;endFill=0;endSize=12;html=1;rounded=0;exitX=0.75;exitY=0;exitDx=0;exitDy=0;entryX=0.25;entryY=1;entryDx=0;entryDy=0;" edge="1" parent="1" source="a_T9DH_fcQy3RvN6pvx2-56" target="a_T9DH_fcQy3RvN6pvx2-54">
          <mxGeometry width="160" relative="1" as="geometry">
            <mxPoint x="920" y="620" as="sourcePoint" />
            <mxPoint x="1080" y="620" as="targetPoint" />
            <Array as="points">
              <mxPoint x="570" y="220" />
              <mxPoint x="795" y="220" />
            </Array>
          </mxGeometry>
        </mxCell>
        <mxCell id="a_T9DH_fcQy3RvN6pvx2-67" value="" style="endArrow=block;dashed=1;endFill=0;endSize=12;html=1;rounded=0;entryX=0.5;entryY=1;entryDx=0;entryDy=0;exitX=0.281;exitY=0;exitDx=0;exitDy=0;exitPerimeter=0;" edge="1" parent="1" source="a_T9DH_fcQy3RvN6pvx2-40" target="a_T9DH_fcQy3RvN6pvx2-56">
          <mxGeometry width="160" relative="1" as="geometry">
            <mxPoint x="590" y="350" as="sourcePoint" />
            <mxPoint x="1100" y="640" as="targetPoint" />
          </mxGeometry>
        </mxCell>
        <mxCell id="a_T9DH_fcQy3RvN6pvx2-68" value="" style="endArrow=block;dashed=1;endFill=0;endSize=12;html=1;rounded=0;exitX=0.75;exitY=0;exitDx=0;exitDy=0;entryX=0.538;entryY=1;entryDx=0;entryDy=0;entryPerimeter=0;" edge="1" parent="1" source="a_T9DH_fcQy3RvN6pvx2-40" target="a_T9DH_fcQy3RvN6pvx2-62">
          <mxGeometry width="160" relative="1" as="geometry">
            <mxPoint x="950" y="650" as="sourcePoint" />
            <mxPoint x="1110" y="650" as="targetPoint" />
            <Array as="points">
              <mxPoint x="655" y="360" />
              <mxPoint x="736" y="360" />
            </Array>
          </mxGeometry>
        </mxCell>
        <mxCell id="a_T9DH_fcQy3RvN6pvx2-69" value="" style="endArrow=block;dashed=1;endFill=0;endSize=12;html=1;rounded=0;entryX=0.5;entryY=1;entryDx=0;entryDy=0;exitX=1.013;exitY=0.136;exitDx=0;exitDy=0;exitPerimeter=0;" edge="1" parent="1" source="a_T9DH_fcQy3RvN6pvx2-61" target="a_T9DH_fcQy3RvN6pvx2-54">
          <mxGeometry width="160" relative="1" as="geometry">
            <mxPoint x="960" y="660" as="sourcePoint" />
            <mxPoint x="1120" y="660" as="targetPoint" />
            <Array as="points">
              <mxPoint x="840" y="273" />
            </Array>
          </mxGeometry>
        </mxCell>
        <mxCell id="a_T9DH_fcQy3RvN6pvx2-70" value="Use" style="endArrow=open;endSize=12;dashed=1;html=1;rounded=0;exitX=0.25;exitY=0;exitDx=0;exitDy=0;entryX=1;entryY=0.75;entryDx=0;entryDy=0;" edge="1" parent="1" source="a_T9DH_fcQy3RvN6pvx2-56" target="a_T9DH_fcQy3RvN6pvx2-55">
          <mxGeometry width="160" relative="1" as="geometry">
            <mxPoint x="590" y="660" as="sourcePoint" />
            <mxPoint x="750" y="660" as="targetPoint" />
            <Array as="points">
              <mxPoint x="490" y="200" />
              <mxPoint x="410" y="200" />
              <mxPoint x="410" y="125" />
            </Array>
          </mxGeometry>
        </mxCell>
        <mxCell id="a_T9DH_fcQy3RvN6pvx2-71" value="Use" style="endArrow=open;endSize=12;dashed=1;html=1;rounded=0;exitX=0.25;exitY=1;exitDx=0;exitDy=0;" edge="1" parent="1" source="a_T9DH_fcQy3RvN6pvx2-60">
          <mxGeometry width="160" relative="1" as="geometry">
            <mxPoint x="600" y="670" as="sourcePoint" />
            <mxPoint x="320" y="160" as="targetPoint" />
            <Array as="points">
              <mxPoint x="690" y="330" />
              <mxPoint x="540" y="330" />
              <mxPoint x="390" y="330" />
              <mxPoint x="390" y="190" />
              <mxPoint x="320" y="190" />
            </Array>
          </mxGeometry>
        </mxCell>
        <mxCell id="a_T9DH_fcQy3RvN6pvx2-72" value="Use" style="endArrow=open;endSize=12;dashed=1;html=1;rounded=0;exitX=0;exitY=0.5;exitDx=0;exitDy=0;" edge="1" parent="1" source="a_T9DH_fcQy3RvN6pvx2-40" target="a_T9DH_fcQy3RvN6pvx2-22">
          <mxGeometry width="160" relative="1" as="geometry">
            <mxPoint x="610" y="680" as="sourcePoint" />
            <mxPoint x="770" y="680" as="targetPoint" />
          </mxGeometry>
        </mxCell>
        <mxCell id="a_T9DH_fcQy3RvN6pvx2-73" value="Use" style="endArrow=open;endSize=12;dashed=1;html=1;rounded=0;" edge="1" parent="1" source="a_T9DH_fcQy3RvN6pvx2-40" target="a_T9DH_fcQy3RvN6pvx2-50">
          <mxGeometry width="160" relative="1" as="geometry">
            <mxPoint x="620" y="690" as="sourcePoint" />
            <mxPoint x="780" y="690" as="targetPoint" />
          </mxGeometry>
        </mxCell>
        <mxCell id="a_T9DH_fcQy3RvN6pvx2-74" value="Use" style="endArrow=open;endSize=12;dashed=1;html=1;rounded=0;exitX=0;exitY=0.25;exitDx=0;exitDy=0;entryX=0.75;entryY=0;entryDx=0;entryDy=0;" edge="1" parent="1" source="a_T9DH_fcQy3RvN6pvx2-40" target="a_T9DH_fcQy3RvN6pvx2-18">
          <mxGeometry width="160" relative="1" as="geometry">
            <mxPoint x="630" y="700" as="sourcePoint" />
            <mxPoint x="790" y="700" as="targetPoint" />
            <Array as="points">
              <mxPoint x="400" y="445" />
              <mxPoint x="400" y="350" />
              <mxPoint x="110" y="350" />
            </Array>
          </mxGeometry>
        </mxCell>
        <mxCell id="a_T9DH_fcQy3RvN6pvx2-79" value="" style="endArrow=block;dashed=1;endFill=0;endSize=12;html=1;rounded=0;exitX=1.031;exitY=0.769;exitDx=0;exitDy=0;exitPerimeter=0;" edge="1" parent="1" source="a_T9DH_fcQy3RvN6pvx2-84">
          <mxGeometry width="160" relative="1" as="geometry">
            <mxPoint x="80" y="59" as="sourcePoint" />
            <mxPoint x="190" y="55" as="targetPoint" />
          </mxGeometry>
        </mxCell>
        <mxCell id="a_T9DH_fcQy3RvN6pvx2-80" value="" style="endArrow=block;dashed=1;endFill=0;endSize=12;html=1;rounded=0;exitX=1;exitY=0.25;exitDx=0;exitDy=0;entryX=0.006;entryY=0.843;entryDx=0;entryDy=0;entryPerimeter=0;" edge="1" parent="1" source="a_T9DH_fcQy3RvN6pvx2-91" target="a_T9DH_fcQy3RvN6pvx2-55">
          <mxGeometry width="160" relative="1" as="geometry">
            <mxPoint x="970" y="670" as="sourcePoint" />
            <mxPoint x="1130" y="670" as="targetPoint" />
          </mxGeometry>
        </mxCell>
        <mxCell id="a_T9DH_fcQy3RvN6pvx2-83" value="AllLIterator" style="swimlane;fontStyle=1;align=center;verticalAlign=top;childLayout=stackLayout;horizontal=1;startSize=26;horizontalStack=0;resizeParent=1;resizeParentMax=0;resizeLast=0;collapsible=1;marginBottom=0;whiteSpace=wrap;html=1;" vertex="1" parent="1">
          <mxGeometry x="-80" y="10" width="160" height="60" as="geometry" />
        </mxCell>
        <mxCell id="a_T9DH_fcQy3RvN6pvx2-84" value="- labyrinth" style="text;strokeColor=none;fillColor=none;align=left;verticalAlign=top;spacingLeft=4;spacingRight=4;overflow=hidden;rotatable=0;points=[[0,0.5],[1,0.5]];portConstraint=eastwest;whiteSpace=wrap;html=1;" vertex="1" parent="a_T9DH_fcQy3RvN6pvx2-83">
          <mxGeometry y="26" width="160" height="26" as="geometry" />
        </mxCell>
        <mxCell id="a_T9DH_fcQy3RvN6pvx2-85" value="" style="line;strokeWidth=1;fillColor=none;align=left;verticalAlign=middle;spacingTop=-1;spacingLeft=3;spacingRight=3;rotatable=0;labelPosition=right;points=[];portConstraint=eastwest;strokeColor=inherit;" vertex="1" parent="a_T9DH_fcQy3RvN6pvx2-83">
          <mxGeometry y="52" width="160" height="8" as="geometry" />
        </mxCell>
        <mxCell id="a_T9DH_fcQy3RvN6pvx2-91" value="NeighborLIterator" style="swimlane;fontStyle=1;align=center;verticalAlign=top;childLayout=stackLayout;horizontal=1;startSize=26;horizontalStack=0;resizeParent=1;resizeParentMax=0;resizeLast=0;collapsible=1;marginBottom=0;whiteSpace=wrap;html=1;" vertex="1" parent="1">
          <mxGeometry x="-80" y="120" width="160" height="68" as="geometry" />
        </mxCell>
        <mxCell id="a_T9DH_fcQy3RvN6pvx2-92" value="- labyrinth&lt;br&gt;- currentXY" style="text;strokeColor=none;fillColor=none;align=left;verticalAlign=top;spacingLeft=4;spacingRight=4;overflow=hidden;rotatable=0;points=[[0,0.5],[1,0.5]];portConstraint=eastwest;whiteSpace=wrap;html=1;" vertex="1" parent="a_T9DH_fcQy3RvN6pvx2-91">
          <mxGeometry y="26" width="160" height="34" as="geometry" />
        </mxCell>
        <mxCell id="a_T9DH_fcQy3RvN6pvx2-93" value="" style="line;strokeWidth=1;fillColor=none;align=left;verticalAlign=middle;spacingTop=-1;spacingLeft=3;spacingRight=3;rotatable=0;labelPosition=right;points=[];portConstraint=eastwest;strokeColor=inherit;" vertex="1" parent="a_T9DH_fcQy3RvN6pvx2-91">
          <mxGeometry y="60" width="160" height="8" as="geometry" />
        </mxCell>
        <mxCell id="a_T9DH_fcQy3RvN6pvx2-96" value="" style="endArrow=diamondThin;endFill=0;endSize=24;html=1;rounded=0;entryX=0;entryY=0.25;entryDx=0;entryDy=0;exitX=-0.019;exitY=0.266;exitDx=0;exitDy=0;exitPerimeter=0;" edge="1" parent="1" source="a_T9DH_fcQy3RvN6pvx2-34" target="a_T9DH_fcQy3RvN6pvx2-91">
          <mxGeometry width="160" relative="1" as="geometry">
            <mxPoint x="590" y="635" as="sourcePoint" />
            <mxPoint x="770" y="605" as="targetPoint" />
            <Array as="points">
              <mxPoint x="-200" y="573" />
              <mxPoint x="-200" y="137" />
            </Array>
          </mxGeometry>
        </mxCell>
      </root>
    </mxGraphModel>
  </diagram>
</mxfile>
